<?xml version="1.0" encoding="iso-8859-1"?>
<!-- Uploaded to: SVG Repo, www.svgrepo.com, Generator: SVG Repo Mixer Tools -->
<svg fill="#000000" height="800px" width="800px" version="1.1" id="Layer_1" xmlns="http://www.w3.org/2000/svg" xmlns:xlink="http://www.w3.org/1999/xlink" 
	 viewBox="0 0 512 512" xml:space="preserve">
<g>
	<g>
		<path d="M501.718,423.358h-17.551V150.515c0-4.407-3.571-7.978-7.978-7.978H106.017c-4.407,0-7.978,3.571-7.978,7.978v272.842
			H86.338v-87.756c0-4.407-3.571-7.978-7.978-7.978c-4.407,0-7.978,3.571-7.978,7.978v95.734c0,4.407,3.571,7.978,7.978,7.978
			h423.358c4.407,0,7.978-3.571,7.978-7.978C509.695,426.929,506.124,423.358,501.718,423.358z M211.856,158.493h0.532h72.864
			v105.308h-73.396V158.493z M468.211,423.358h-69.141v-209.02c0-4.407-3.571-7.978-7.978-7.978s-7.978,3.571-7.978,7.978v209.02
			H113.994V158.493H195.9v113.285c0,4.407,3.571,7.978,7.978,7.978h89.352c4.407,0,7.978-3.571,7.978-7.978V158.493h0.532h81.374
			v20.742c0,4.407,3.571,7.978,7.978,7.978s7.978-3.571,7.978-7.978v-20.742h69.141V423.358z"/>
	</g>
</g>
<g>
	<g>
		<path d="M46.449,2.127H10.282c-4.407,0-7.978,3.571-7.978,7.978s3.571,7.978,7.978,7.978h36.166
			c13.196,0,23.934,10.737,23.934,23.934v257.418c0,4.407,3.571,7.978,7.978,7.978s7.978-3.571,7.978-7.978V42.017
			C86.338,20.021,68.444,2.127,46.449,2.127z"/>
	</g>
</g>
<g>
	<g>
		<path d="M411.302,442.15c-19.257,0-34.925,15.667-34.925,34.925S392.045,512,411.302,512s34.925-15.667,34.925-34.925
			S430.559,442.15,411.302,442.15z M411.302,496.044c-10.459,0-18.969-8.51-18.969-18.969c0-10.46,8.51-18.969,18.969-18.969
			c10.46,0,18.969,8.51,18.969,18.969C430.271,487.535,421.762,496.044,411.302,496.044z"/>
	</g>
</g>
<g>
	<g>
		<path d="M173.03,442.15c-19.257,0-34.925,15.667-34.925,34.925S153.773,512,173.03,512c19.257,0,34.925-15.667,34.925-34.925
			S192.288,442.15,173.03,442.15z M173.03,496.044c-10.459,0-18.969-8.51-18.969-18.969c0-10.46,8.51-18.969,18.969-18.969
			c10.459,0,18.969,8.51,18.969,18.969C192,487.535,183.49,496.044,173.03,496.044z"/>
	</g>
</g>
<g>
	<g>
		<path d="M137.928,308.477c-4.407,0-7.978,3.571-7.978,7.978v82.97c0,4.407,3.571,7.978,7.978,7.978
			c4.407,0,7.978-3.571,7.978-7.978v-82.97C145.906,312.048,142.334,308.477,137.928,308.477z"/>
	</g>
</g>
<g>
	<g>
		<path d="M176.222,308.477c-4.407,0-7.978,3.571-7.978,7.978v82.97c0,4.407,3.571,7.978,7.978,7.978s7.978-3.571,7.978-7.978
			v-82.97C184.199,312.048,180.627,308.477,176.222,308.477z"/>
	</g>
</g>
<g>
	<g>
		<path d="M197.496,308.477c-4.407,0-7.978,3.571-7.978,7.978v82.97c0,4.407,3.571,7.978,7.978,7.978s7.978-3.571,7.978-7.978
			v-82.97C205.474,312.048,201.902,308.477,197.496,308.477z"/>
	</g>
</g>
<g>
	<g>
		<path d="M218.77,308.477c-4.407,0-7.978,3.571-7.978,7.978v82.97c0,4.407,3.571,7.978,7.978,7.978
			c4.407,0,7.978-3.571,7.978-7.978v-82.97C226.748,312.048,223.176,308.477,218.77,308.477z"/>
	</g>
</g>
<g>
	<g>
		<path d="M240.044,308.477c-4.407,0-7.978,3.571-7.978,7.978v82.97c0,4.407,3.571,7.978,7.978,7.978s7.978-3.571,7.978-7.978
			v-82.97C248.022,312.048,244.45,308.477,240.044,308.477z"/>
	</g>
</g>
<g>
	<g>
		<path d="M278.338,308.477c-4.407,0-7.978,3.571-7.978,7.978v82.97c0,4.407,3.571,7.978,7.978,7.978s7.978-3.571,7.978-7.978
			v-82.97C286.316,312.048,282.744,308.477,278.338,308.477z"/>
	</g>
</g>
<g>
	<g>
		<path d="M299.612,308.477c-4.407,0-7.978,3.571-7.978,7.978v82.97c0,4.407,3.571,7.978,7.978,7.978s7.978-3.571,7.978-7.978
			v-82.97C307.59,312.048,304.018,308.477,299.612,308.477z"/>
	</g>
</g>
<g>
	<g>
		<path d="M340.033,308.477c-4.407,0-7.978,3.571-7.978,7.978v82.97c0,4.407,3.571,7.978,7.978,7.978s7.978-3.571,7.978-7.978
			v-82.97C348.011,312.048,344.439,308.477,340.033,308.477z"/>
	</g>
</g>
<g>
	<g>
		<path d="M359.18,308.477c-4.407,0-7.978,3.571-7.978,7.978v82.97c0,4.407,3.571,7.978,7.978,7.978
			c4.407,0,7.978-3.571,7.978-7.978v-82.97C367.158,312.048,363.586,308.477,359.18,308.477z"/>
	</g>
</g>
<g>
	<g>
		<path d="M291.103,0c-37.244,0-67.546,30.301-67.546,67.546c0,37.245,30.301,67.546,67.546,67.546
			c37.245,0,67.546-30.301,67.546-67.546C358.648,30.301,328.346,0,291.103,0z M291.103,119.136c-28.447,0-51.59-23.143-51.59-51.59
			c0-28.447,23.142-51.59,51.59-51.59c28.447,0,51.59,23.143,51.59,51.59C342.693,95.993,319.549,119.136,291.103,119.136z"/>
	</g>
</g>
<g>
	<g>
		<path d="M326.89,47.401c-2.903-3.318-7.943-3.651-11.257-0.751l-28.119,24.604l-13.885-15.427
			c-2.948-3.276-7.994-3.54-11.267-0.592c-3.274,2.948-3.54,7.992-0.593,11.267l19.148,21.274c1.573,1.749,3.747,2.64,5.932,2.64
			c1.866,0,3.738-0.65,5.25-1.973l34.039-29.784C329.455,55.757,329.792,50.717,326.89,47.401z"/>
	</g>
</g>
</svg>